# xmcd
#
# Track frame offsets: 
#        150
#        73604
#        162153
#        241616
#        321143
#        335408
#
# Disc length: 4759 seconds
#
# Revision: 5
# Processed by: cddbd v1.5.2PL0 Copyright (c) Steve Scherf et al.
# Submitted via: ExactAudioCopy v1.0b6
#
DISCID=47129506
DTITLE=Tangerine Dream - The Virgin Years 1977-1983 [CD 1)
DYEAR=2012
DGENRE=Ambient
TTITLE0=Cherokee Lane
TTITLE1=Monolight
TTITLE2=Coldwater Canyon
TTITLE3=Desert Dream
TTITLE4=Monolight
TTITLE5=Hobo March
EXTD=
EXTT0=
EXTT1=
EXTT2=
EXTT3=
EXTT4=
EXTT5=
PLAYORDER=
